<svg width="1316" height="440" viewBox="0 0 1316 440" fill="none" xmlns="http://www.w3.org/2000/svg">
<path d="M227.733 107.416L227.717 107.222L26.7895 107.207L265.405 71.2869L39.5471 71.5561L298.946 35.1426L298.83 35.008L51.836 35.8902L338.465 0.089719L338.361 0L65.2087 0.119625L48.1302 35.8902L48.0131 35.8753L31.4473 72.6627H31.5937L15.3501 108.912L15.6137 108.897L0 144.308L227.733 107.416Z" fill="white"/>
<path d="M401.049 91.2859C338.667 154.857 251.707 261.391 178.032 418.739C256.555 239.482 339.238 119.505 386.973 59.3587L386.709 59.1642C324.166 118.952 221.227 235.848 136.288 419.233C229.663 204.595 331.051 73.924 372.546 26.5938H372.18C315.671 75.3148 187.612 202.142 87.5139 421.91C210.916 135.296 348.656 5.88224 352.992 2.74185L353.168 2.2334L348.524 5.50837C304.407 40.7705 150.877 176.48 38.0508 436.564L80.7909 436.939L81.0546 436.953L128.027 437.402H128.57L169.244 437.776H169.815L227.232 438.33C273.546 267.836 353.299 159.283 400.888 91.5701L401.049 91.2859Z" fill="white"/>
<path d="M529.199 246.423C527.414 250.786 524.66 254.644 520.901 258.018C517.141 261.353 512.317 264.068 506.43 266.143C500.542 268.197 493.554 269.245 485.483 269.245C482.14 269.245 478.798 269.011 475.532 268.527C472.227 268.042 469.056 267.441 465.999 266.665C462.94 265.909 460.13 264.978 457.585 263.932C455.059 262.865 452.876 261.819 451.015 260.752C450.426 260.403 450.274 259.976 450.483 259.511L455.534 242.546C455.744 241.828 456.199 241.654 456.902 242.003C460.605 244.368 465.068 246.346 470.348 247.936C475.589 249.525 481.153 250.321 487.04 250.321C494.086 250.321 499.555 248.847 503.41 245.9C507.283 242.953 509.183 239.114 509.183 234.402C509.183 230.04 507.493 226.414 503.999 223.525C500.542 220.636 494.94 217.941 487.211 215.479C482.007 213.811 477.298 211.93 473.101 209.72C468.884 207.569 465.258 205.028 462.276 202.139C459.276 199.25 456.94 195.993 455.268 192.406C453.579 188.819 452.743 184.728 452.743 180.114C452.743 175.169 453.769 170.594 455.762 166.405C457.795 162.217 460.681 158.592 464.441 155.528C468.182 152.465 472.702 150.08 477.943 148.373C483.204 146.687 489.109 145.814 495.699 145.814C502.727 145.814 508.784 146.434 513.798 147.676C518.811 148.897 523.008 150.409 526.351 152.193C526.921 152.426 527.11 152.814 526.864 153.415L521.679 169.682C521.565 170.031 521.318 170.283 520.977 170.4C520.634 170.515 520.349 170.458 520.102 170.225C518.147 169.139 515.013 167.918 510.665 166.483C506.353 165.087 501.226 164.389 495.358 164.389C491.655 164.389 488.54 164.797 486.015 165.63C483.451 166.425 481.4 167.53 479.862 168.887C478.304 170.244 477.145 171.776 476.386 173.482C475.646 175.208 475.266 176.876 475.266 178.523C475.266 182.886 477.108 186.396 480.811 189.052C484.496 191.688 490.44 194.325 498.644 196.924C509.734 200.569 518.051 205.145 523.597 210.613C529.123 216.118 531.877 223.564 531.877 232.987C531.877 237.582 531.003 242.08 529.199 246.423Z" fill="white"/>
<path d="M599.615 166.821V266.014C599.615 266.712 599.273 267.061 598.57 267.061H578.307C577.623 267.061 577.282 266.712 577.282 266.014V166.821H540.743C540.04 166.821 539.699 166.452 539.699 165.754V148.769C539.699 148.188 540.04 147.896 540.743 147.896H636.343C637.026 147.896 637.387 148.188 637.387 148.769V165.754C637.387 166.452 637.026 166.821 636.343 166.821H599.615Z" fill="white"/>
<path d="M670.112 224.844C671.84 230.04 674.29 234.577 677.481 238.454C680.633 242.352 684.546 245.416 689.159 247.646C693.794 249.913 698.978 251.019 704.751 251.019C710.658 251.019 715.937 249.913 720.589 247.646C725.28 245.416 729.23 242.352 732.478 238.454C735.706 234.577 738.175 229.943 739.922 224.573C741.65 219.221 742.524 213.423 742.524 207.162C742.524 201.615 741.707 196.245 740.093 191.068C738.479 185.891 736.067 181.296 732.895 177.283C729.724 173.269 725.793 170.07 721.121 167.646C716.43 165.223 711.075 164.02 705.093 164.02C698.978 164.02 693.584 165.204 688.893 167.55C684.241 169.934 680.291 173.075 677.119 177.108C673.929 181.122 671.537 185.795 669.942 191.166C668.308 196.517 667.511 202.217 667.511 208.227C667.511 214.122 668.384 219.667 670.112 224.844ZM761.381 232.444C758.267 240.239 753.918 246.831 748.392 252.26C742.847 257.688 736.314 261.877 728.736 264.824C721.178 267.752 713.012 269.225 704.239 269.225C695.236 269.225 687.033 267.694 679.646 264.63C672.239 261.567 665.934 257.36 660.673 251.988C655.414 246.617 651.349 240.258 648.482 232.89C645.576 225.542 644.133 217.534 644.133 208.926C644.133 199.619 645.671 191.107 648.709 183.39C651.768 175.673 656.04 169.004 661.452 163.4C666.903 157.816 673.379 153.473 680.937 150.409C688.514 147.346 696.718 145.814 705.625 145.814C714.854 145.814 723.191 147.346 730.654 150.409C738.099 153.473 744.423 157.7 749.703 163.051C754.944 168.421 758.988 174.801 761.8 182.246C764.648 189.653 766.072 197.68 766.072 206.289C766.072 215.945 764.495 224.65 761.381 232.444Z" fill="white"/>
<path d="M867.625 147.831C873.114 149.188 877.064 150.507 879.494 151.826C880.064 152.058 880.235 152.465 880.007 153.047L875.336 169.139C875.107 169.974 874.614 170.148 873.95 169.682C870.816 168.267 867.055 167.045 862.593 166.056C858.168 165.049 853.287 164.563 847.951 164.563C841.039 164.563 834.752 165.552 829.169 167.55C823.567 169.565 818.762 172.416 814.793 176.12C810.824 179.842 807.766 184.418 805.621 189.828C803.475 195.256 802.43 201.325 802.43 208.034C802.43 214.045 803.399 219.628 805.374 224.767C807.311 229.885 810.179 234.345 813.938 238.106C817.68 241.886 822.37 244.815 827.954 246.947C833.556 249.061 839.994 250.127 847.286 250.127C852.224 250.127 857.123 249.681 861.909 248.79C866.675 247.917 870.758 246.715 874.139 245.183C874.803 244.815 875.279 245.047 875.506 245.901L879.324 261.799C879.532 262.032 879.381 262.343 878.773 262.692C875.905 264.222 871.443 265.696 865.366 267.093C859.307 268.527 852.167 269.226 843.982 269.226C834.05 269.226 825.105 267.81 817.148 264.98C809.171 262.168 802.354 258.096 796.695 252.784C791.036 247.471 786.687 241.111 783.63 233.666C780.572 226.26 779.015 217.941 779.015 208.751C779.015 199.696 780.648 191.32 783.895 183.642C787.104 175.984 791.7 169.352 797.645 163.749C803.607 158.146 810.748 153.764 819.123 150.584C827.517 147.385 836.823 145.814 847.096 145.814C855.3 145.814 862.137 146.473 867.625 147.831Z" fill="white"/>
<path d="M971.112 268.853C970.865 268.853 970.58 268.679 970.219 268.31L931.782 212.625C929.959 214.622 928.135 216.561 926.313 218.462C924.528 220.342 922.78 222.281 921.072 224.278V266.023C921.072 266.72 920.71 267.069 920.007 267.069H899.915C899.232 267.069 898.89 266.72 898.89 266.023V148.777C898.89 148.195 899.232 147.905 899.915 147.905H920.007C920.71 147.905 921.072 148.195 921.072 148.777L921.565 200.061C922.477 198.529 923.312 197.385 923.996 196.61C924.698 195.854 925.439 194.982 926.237 194.051L928.838 190.851L965.737 147.362C965.965 147.11 966.25 147.013 966.591 147.013L990.862 147.905C991.318 147.905 991.621 148.079 991.793 148.429C991.983 148.777 991.887 149.145 991.546 149.494L947.905 198.646C955.748 209.717 963.63 220.807 971.529 231.898C979.43 242.969 987.311 254.098 995.173 265.305C995.42 265.673 995.439 266.061 995.267 266.449C995.097 266.875 994.774 267.069 994.318 267.069L971.112 268.853Z" fill="white"/>
<path d="M534.654 437.897C533.952 437.897 533.611 437.548 533.611 436.831V385.373H478.195V436.831C478.195 437.548 477.854 437.897 477.151 437.897H456.888C456.185 437.897 455.862 437.548 455.862 436.831V319.606C455.862 319.004 456.185 318.714 456.888 318.714H477.151C477.854 318.714 478.195 319.004 478.195 319.606V365.77H533.611V319.606C533.611 319.004 533.952 318.714 534.654 318.714H554.918C555.621 318.714 555.963 319.004 555.963 319.606V436.831C555.963 437.548 555.621 437.897 554.918 437.897H534.654Z" fill="white"/>
<path d="M601.537 395.619C603.284 400.815 605.715 405.352 608.886 409.25C612.077 413.128 615.97 416.191 620.585 418.421C625.2 420.669 630.402 421.794 636.176 421.794C642.045 421.794 647.343 420.669 652.014 418.421C656.704 416.191 660.636 413.128 663.883 409.25C667.112 405.352 669.619 400.719 671.347 395.367C673.056 389.997 673.929 384.18 673.929 377.936C673.929 372.41 673.132 367.039 671.498 361.843C669.885 356.647 667.492 352.072 664.321 348.058C661.149 344.064 657.217 340.826 652.545 338.421C647.856 335.998 642.519 334.796 636.518 334.796C630.402 334.796 625.01 335.979 620.337 338.344C615.665 340.671 611.716 343.87 608.545 347.884C605.373 351.897 602.98 356.569 601.366 361.941C599.732 367.292 598.935 372.972 598.935 379.003C598.935 384.897 599.789 390.442 601.537 395.619ZM692.806 403.22C689.711 410.995 685.362 417.606 679.816 423.035C674.271 428.464 667.719 432.633 660.18 435.579C652.602 438.527 644.417 440.001 635.644 440.001C626.643 440.001 618.438 438.469 611.07 435.406C603.664 432.341 597.358 428.134 592.099 422.783C586.838 417.393 582.774 411.034 579.887 403.665C576.982 396.298 575.558 388.31 575.558 379.701C575.558 370.394 577.076 361.882 580.153 354.146C583.21 346.448 587.445 339.778 592.858 334.175C598.289 328.572 604.803 324.229 612.361 321.185C619.92 318.121 628.143 316.57 637.031 316.57C646.279 316.57 654.616 318.121 662.06 321.185C669.523 324.229 675.866 328.456 681.127 333.826C686.368 339.178 690.413 345.576 693.243 353.002C696.072 360.428 697.497 368.455 697.497 377.045C697.497 386.719 695.94 395.444 692.806 403.22Z" fill="white"/>
<path d="M883.909 346.091C875.876 339.13 864.121 335.678 848.663 335.678C844.618 335.678 841.218 335.795 838.445 336.028C835.672 336.26 833.298 336.609 831.343 337.093V420.35C833.185 420.602 835.312 420.738 837.742 420.796C840.173 420.873 842.756 420.913 845.528 420.913C853.752 420.913 860.987 419.865 867.273 417.79C873.559 415.754 878.819 412.769 883.036 408.892C887.252 404.994 890.461 400.263 892.645 394.717C894.848 389.172 895.949 383.007 895.949 376.162C895.949 363.095 891.923 353.07 883.909 346.091ZM914.465 401.272C911.123 409.046 906.432 415.716 900.45 421.261C894.202 427.136 886.074 431.595 876.009 434.601C865.982 437.625 854.607 439.099 841.901 439.099C834.97 439.099 828.949 439.002 823.804 438.769C818.676 438.518 814.023 438.111 809.864 437.529C809.276 437.529 809.01 437.18 809.01 436.462V321.176C809.01 320.458 809.276 320.089 809.864 320.089C815.277 319.411 821.164 318.81 827.544 318.345C833.869 317.88 840.515 317.627 847.446 317.627C871.242 317.627 889.017 322.649 900.792 332.673C906.565 337.598 911.123 343.648 914.465 350.802C917.826 357.917 919.478 366.08 919.478 375.291C919.478 384.829 917.826 393.496 914.465 401.272Z" fill="white"/>
<path d="M939.251 437.897C938.548 437.897 938.207 437.548 938.207 436.831V319.606C938.207 319.004 938.548 318.714 939.251 318.714H959.514C960.198 318.714 960.559 319.004 960.559 319.606V436.831C960.559 437.548 960.198 437.897 959.514 437.897H939.251Z" fill="white"/>
<path d="M1064.28 437.897C1064.06 437.897 1063.77 437.703 1063.43 437.374L1027.94 383.085C1023.89 376.822 1019.96 370.521 1016.14 364.161C1012.34 357.802 1008.93 351.48 1005.93 345.257C1006.29 352.43 1006.51 359.586 1006.63 366.72C1006.72 373.856 1006.8 381.553 1006.8 389.793V436.831C1006.8 437.548 1006.46 437.897 1005.74 437.897H986.897C986.175 437.897 985.833 437.548 985.833 436.831V319.606C985.833 319.004 986.175 318.714 986.897 318.714H1010.96C1011.3 318.946 1011.53 319.121 1011.64 319.238L1047.31 372.13C1051.35 378.141 1054.96 383.958 1058.15 389.619C1061.34 395.3 1064.28 400.884 1067.06 406.429C1066.49 399.701 1066.15 393.07 1066.03 386.517C1065.92 379.983 1065.84 372.887 1065.84 365.228V319.606C1065.84 319.004 1066.2 318.714 1066.91 318.714H1085.78C1086.47 318.714 1086.81 319.004 1086.81 319.606V436.831C1086.81 437.548 1086.47 437.897 1085.78 437.897H1064.28Z" fill="white"/>
<path d="M1215.29 433.302C1214.13 433.534 1213.11 433.651 1212.2 433.651C1211.37 433.767 1210.61 433.824 1209.91 433.824C1209.25 433.824 1208.43 433.999 1207.5 434.348C1203.11 435.647 1198.02 436.772 1192.26 437.703C1186.5 438.672 1180.31 439.118 1173.74 439.118C1152.37 439.118 1135.56 433.417 1123.34 421.959C1117.92 416.782 1113.69 410.5 1110.69 403.054C1107.68 395.628 1106.21 387.659 1106.21 379.187C1106.21 370.578 1107.76 362.532 1110.96 355.048C1114.13 347.563 1118.74 341.029 1124.82 335.426C1130.87 329.803 1138.26 325.44 1146.98 322.261C1155.68 319.062 1165.58 317.453 1176.7 317.453C1184.66 317.453 1191.64 318.19 1197.71 319.605C1203.78 321.02 1208.3 322.357 1211.32 323.676C1212 323.908 1212.23 324.296 1212 324.898L1207.16 341.165C1207.04 341.862 1206.63 342.115 1205.94 341.862C1202.24 340.351 1198.08 339.013 1193.38 337.889C1188.7 336.764 1182.96 336.221 1176.15 336.221C1168.99 336.221 1162.55 337.229 1156.83 339.226C1151.14 341.223 1146.26 344.073 1142.21 347.718C1138.17 351.363 1135.06 355.745 1132.85 360.864C1130.66 366.002 1129.56 371.683 1129.56 377.966C1129.56 384.189 1130.59 389.928 1132.69 395.106C1134.77 400.282 1137.77 404.761 1141.7 408.542C1145.61 412.323 1150.36 415.25 1155.99 417.383C1161.56 419.496 1167.89 420.544 1174.97 420.544C1179.45 420.544 1183.35 420.272 1186.63 419.69C1189.94 419.089 1192.48 418.45 1194.34 417.713V389.987H1171.47C1170.79 389.987 1170.43 389.618 1170.43 388.901V372.827C1170.43 372.11 1170.79 371.761 1171.47 371.761H1215.14C1215.82 371.761 1216.16 372.11 1216.16 372.827V432.429L1215.29 433.302Z" fill="white"/>
<path d="M1312.55 417.198C1310.75 421.561 1308 425.438 1304.24 428.774C1300.49 432.147 1295.67 434.861 1289.78 436.916C1283.9 438.972 1276.91 439.999 1268.82 439.999C1265.48 439.999 1262.15 439.767 1258.87 439.302C1255.58 438.836 1252.4 438.196 1249.33 437.46C1246.26 436.684 1243.47 435.753 1240.94 434.707C1238.4 433.64 1236.2 432.573 1234.37 431.507C1233.77 431.177 1233.59 430.751 1233.82 430.285L1238.85 413.3C1239.08 412.603 1239.56 412.409 1240.26 412.778C1243.93 415.123 1248.41 417.12 1253.66 418.711C1258.92 420.3 1264.52 421.095 1270.39 421.095C1277.42 421.095 1282.87 419.603 1286.75 416.674C1290.63 413.728 1292.54 409.889 1292.54 405.177C1292.54 400.814 1290.81 397.189 1287.35 394.3C1283.9 391.411 1278.3 388.735 1270.55 386.273C1265.36 384.605 1260.66 382.686 1256.46 380.515C1252.25 378.304 1248.62 375.803 1245.6 372.895C1242.61 370.025 1240.28 366.768 1238.59 363.181C1236.93 359.574 1236.1 355.484 1236.1 350.868C1236.1 345.925 1237.11 341.388 1239.12 337.2C1241.13 333.011 1244.04 329.366 1247.79 326.322C1251.54 323.24 1256.02 320.874 1261.29 319.148C1266.54 317.422 1272.45 316.57 1279.04 316.57C1286.08 316.57 1292.12 317.209 1297.13 318.451C1302.17 319.672 1306.35 321.184 1309.69 322.948C1310.26 323.181 1310.44 323.608 1310.23 324.19L1305.02 340.457C1304.91 340.806 1304.68 341.058 1304.32 341.174C1304 341.271 1303.69 341.232 1303.44 340.981C1301.5 339.933 1298.37 338.693 1294.02 337.277C1289.69 335.862 1284.59 335.144 1278.7 335.144C1275 335.144 1271.88 335.551 1269.34 336.365C1266.81 337.219 1264.76 338.305 1263.22 339.662C1261.64 341.019 1260.46 342.551 1259.75 344.257C1258.97 345.963 1258.61 347.65 1258.61 349.298C1258.61 353.641 1260.45 357.171 1264.13 359.807C1267.86 362.463 1273.8 365.081 1281.98 367.679C1293.08 371.344 1301.39 375.9 1306.94 381.386C1312.48 386.874 1315.23 394.338 1315.23 403.762C1315.23 408.338 1314.34 412.836 1312.55 417.198Z" fill="white"/>
<path d="M793.139 418.625H739.205V319.606C739.205 318.985 738.862 318.714 738.179 318.714H717.916C717.214 318.714 716.872 318.985 716.872 319.606V436.812C716.872 437.548 717.214 437.897 717.916 437.897H793.139V418.625Z" fill="white"/>
</svg>
